/* XPM */
static char * end_xpm[] = {
"30 30 3 1",
" 	c #FFFFFF",
".	c #000000",
"+	c #FF0000",
"               ...............",
"               ...............",
"               ...............",
"               ...............",
"        +++++++++++++++.......",
"        +++++++++++++++.......",
"        +++++++++++++++.......",
"        +++++++++++++++.......",
"        +++    ...............",
"        +++    ...............",
"        +++    ...............",
"        +++    ...............",
"        +++    ...............",
"        +++    ...............",
"        ++++++++++++..........",
"........++++++++++++          ",
"........++++++++++++          ",
"........+++....               ",
"........+++....               ",
"........+++....               ",
"........+++....               ",
"........+++++++++++++++       ",
"........+++++++++++++++       ",
"........+++++++++++++++       ",
"........+++++++++++++++       ",
"...............               ",
"...............               ",
"...............               ",
"...............               ",
"...............               "};
