/* XPM */
static char * floor_xpm[] = {
"30 30 2 1",
" 	c #FFFFFF",
".	c #000000",
"               ...............",
"               ...............",
"               ...............",
"               ...............",
"               ...............",
"               ...............",
"               ...............",
"               ...............",
"               ...............",
"               ...............",
"               ...............",
"               ...............",
"               ...............",
"               ...............",
"               ...............",
"...............               ",
"...............               ",
"...............               ",
"...............               ",
"...............               ",
"...............               ",
"...............               ",
"...............               ",
"...............               ",
"...............               ",
"...............               ",
"...............               ",
"...............               ",
"...............               ",
"...............               "};
