/* XPM */
static char * food_xpm[] = {
"30 30 63 1",
" 	c #FFFFFF",
".	c #000000",
"+	c #FFFAFA",
"@	c #FFFBFB",
"#	c #FFAFAF",
"$	c #FF8E8E",
"%	c #FF6D6D",
"&	c #FFDB05",
"*	c #FF9494",
"=	c #FFFCFC",
"-	c #FF5C5C",
";	c #FF9999",
">	c #FFFDFD",
",	c #FF7575",
"'	c #FF9F9F",
")	c #FFFEFE",
"!	c #FF9E9E",
"~	c #FFA5A5",
"{	c #FFC8C8",
"]	c #FFA7A7",
"^	c #FFEFEF",
"/	c #FFB0B0",
"(	c #FF8484",
"_	c #FFB2B2",
":	c #FFD0D0",
"<	c #261F00",
"[	c #F0CE04",
"}	c #FFEFC0",
"|	c #A89002",
"1	c #FFF0C5",
"2	c #161100",
"3	c #E5C404",
"4	c #FFDB11",
"5	c #FFF1C9",
"6	c #796701",
"7	c #FCD905",
"8	c #FFDC18",
"9	c #FFF2CF",
"0	c #B09702",
"a	c #FFDC1E",
"b	c #FFF3D2",
"c	c #0D0900",
"d	c #CEB103",
"e	c #FFDC23",
"f	c #FFF4D7",
"g	c #1C1700",
"h	c #D4B603",
"i	c #FFDC2C",
"j	c #FFF5DA",
"k	c #BBA003",
"l	c #FEDB05",
"m	c #FFDD33",
"n	c #FFF9E8",
"o	c #7E6B01",
"p	c #FFE589",
"q	c #FFE061",
"r	c #FFF4D5",
"s	c #FFFBF0",
"t	c #FFF2CC",
"u	c #FFEFC1",
"v	c #FFF0C4",
"w	c #FFF8E6",
"x	c #FFFFFE",
"               ...............",
"               ...............",
"               ...............",
"               ...............",
"               ...............",
"      +@       ...............",
"      #$@      ...............",
"      %&*=     ...............",
"      -&&;>    ...............",
"      ,&&&')   ...............",
"      !&&&&~)  ...............",
"      {&&&&&]  ...............",
"      ^&&&&&&/ ...............",
"       (&&&&&&_...............",
"       :&&&&&&&...............",
".......<[&&&&&&&}             ",
"........|&&&&&&&&1            ",
"........23&&&&&&&45           ",
".........67&&&&&&&89          ",
"..........0&&&&&&&&ab         ",
"..........cd&&&&&&&&ef        ",
"...........gh&&&&&&&&ij       ",
"............ckl&&&&&&&mn      ",
"..............op&&&&&qr       ",
"............... stuvwx        ",
"...............               ",
"...............               ",
"...............               ",
"...............               ",
"...............               "};
