/* XPM */
static char * player_xpm[] = {
"30 30 4 1",
" 	c #FFFFFF",
".	c #000000",
"+	c #F46815",
"@	c #DFE6DD",
"               ...............",
"               ...............",
"               ...............",
"               ...............",
"   ++++++++++++++++++++++++...",
"   ++++++++++++++++++++++++...",
"   ++++++++++++++++++++++++...",
"   ++++++++++++++++++++++++...",
"   ++++++++++++++++++++++++...",
"   ++++++++++++++++++++++++...",
"   ++++++++++++++++++++++++...",
"   +++++  ...++++@@...+++++...",
"   +++++  ...++++@@...+++++...",
"   +++++.....++++.....+++++...",
"   +++++.....++++.....+++++...",
"...+++++.....++++.....+++++   ",
"...++++++++++++++++++++++++   ",
"...++++++++++++++++++++++++   ",
"...++++++++++++++++++++++++   ",
"...++++++++++++++++++++++++   ",
"...++++++++++++++++++++++++   ",
"...+++++++.........++++++++   ",
"...+++++++.........++++++++   ",
"...+++++++.........++++++++   ",
"...++++++++++++++++++++++++   ",
"...++++++++++++++++++++++++   ",
"...++++++++++++++++++++++++   ",
"...............               ",
"...............               ",
"...............               "};
