/* XPM */
static char * wall_xpm[] = {
"30 30 2 1",
" 	c #F7EBE3",
".	c #F64E05",
"                              ",
" ............................ ",
" ............................ ",
" ............................ ",
" ............................ ",
" ............................ ",
" ............................ ",
" ............................ ",
" ............................ ",
" ............................ ",
" ............................ ",
" ............................ ",
" ............................ ",
" ............................ ",
" ............................ ",
" ............................ ",
" ............................ ",
" ............................ ",
" ............................ ",
" ............................ ",
" ............................ ",
" ............................ ",
" ............................ ",
" ............................ ",
" ............................ ",
" ............................ ",
" ............................ ",
" ............................ ",
" ............................ ",
"                              "};
